<?xml version="1.0" encoding="UTF-8"?>
<svg id="Sygnet_-_dark_background" data-name="Sygnet - dark background" xmlns="http://www.w3.org/2000/svg" viewBox="0 0 300 300">
  <defs>
    <style>
      .cls-1 {
        fill: #f8f4ec;
      }

      .cls-2 {
        fill: #1f1812;
      }
    </style>
  </defs>
  <rect class="cls-2" width="300" height="300"/>
  <path class="cls-1" d="M166.84,36.88c-63.43-8.36-122.09,30.97-131.19,100.01-8.92,67.63,36.12,118.14,97.45,126.22,63.43,8.36,122.1-30.96,131.29-100.7.48-3.61.79-7.17.96-10.68.05-1.01.09-2.02.1-3.02,1.38-60.06-41.86-104.35-98.61-111.83ZM144.41,250.34c-30.37-4-53.64-32.64-60.37-74.09,11.85,6.07,24.07,12.72,37.15,16.48,9.35,2.74,19.2,3.84,28.94,3.86,4.27-.44,9.7-.87,13.92-1.69,16.82-2.65,33.1-8.93,48.23-16.43,1.16-.56,2.31-1.13,3.46-1.71-9.27,59.64-42.57,77.37-71.33,73.58ZM216.53,171.12c-23.27,10.39-52.33,16.72-76.85,10.38-12.28-3.13-22.68-9.67-32.95-17.23-8.26-6.11-16.34-12.22-24.59-18.3.17-6.21.68-12.6,1.54-19.15,8.23-62.38,42.42-81.05,71.85-77.17,41.08,5.41,69.18,55.9,61,121.47Z"/>
</svg>