<?xml version="1.0" encoding="UTF-8"?>
<svg id="White_transparent" xmlns="http://www.w3.org/2000/svg" viewBox="0 0 1000 200">
  <defs>
    <style>
      .cls-1 {
        fill: #f8f4ec;
      }

      .cls-2 {
        fill: #c68a4b;
      }
    </style>
  </defs>
  <circle class="cls-2" cx="559.42" cy="162.74" r="12.5"/>
  <g>
    <path class="cls-1" d="M586.13,168.24c-3.17-6.34-3.6-14.26,1.01-14.26,1.3,0,2.16.72,2.88,2.74,3.74,9.94,9.5,14.83,19.73,14.83,9.07,0,14.26-4.03,14.26-11.09,0-10.08-9.79-12.1-18.58-15.41-10.08-3.6-20.3-8.5-20.3-19.44s9.65-18,24.48-18c7.92,0,14.98,2.16,19.3,5.33,3.17,6.34,3.6,14.11-.86,14.11-1.44,0-2.3-.72-3.02-2.74-3.46-9.36-9.36-13.68-17.57-13.68s-12.53,4.03-12.53,10.51c0,8.78,6.48,11.66,15.7,14.98,10.66,3.89,23.9,7.49,23.9,19.58,0,11.38-10.66,19.01-26.78,19.01-9.5,0-17.14-2.45-21.6-6.48Z"/>
    <path class="cls-1" d="M650.79,158.3v-41.18c0-3.6-1.15-4.32-2.88-4.32h-6.91v-2.88c7.34-3.02,11.95-7.49,16.13-14.98.43-.72,1.01-1.01,1.58-1.01h1.15c.58,0,1.15.58,1.15,1.3l-.14,10.08c0,2.74.86,3.6,6.91,3.6h11.38v4.75l-11.38-.58c-6.05-.14-6.91.86-6.91,4.32v39.02c0,8.64,1.58,13.97,8.64,13.97,3.74,0,6.33-1.3,7.92-3.02,1.87,1.3,1.44,2.59,1.15,2.88-2.59,2.59-6.05,4.32-11.81,4.32-9.36,0-15.98-4.75-15.98-16.27Z"/>
    <path class="cls-1" d="M696.58,151.82v-29.66c0-6.34-1.01-8.78-9.5-8.35v-2.45l14.83-3.46c2.74-.72,4.75.72,4.75,3.89v37.01c0,11.52,5.9,19.87,16.85,19.87s18.14-8.35,18.14-19.87v-26.64c0-6.34-.86-8.78-9.5-8.35v-2.45l14.83-3.46c2.88-.72,4.75.72,4.75,3.89v53.13c0,5.18,3.31,5.33,7.49,4.75v1.44c-1.58,1.87-5.47,3.6-9.22,3.6-4.61,0-8.21-2.59-8.93-8.5-.14-1.01-.14-1.58-1.15-1.58-.72,0-1.01.14-1.73.72-1.87,1.44-8.21,9.36-20.3,9.36s-21.31-7.06-21.31-22.9Z"/>
    <path class="cls-1" d="M765.99,141.6c0-21.74,14.98-33.98,31.68-33.98,13.25,0,19.73,7.78,19.73.43v-14.4c0-6.19-1.01-9.07-9.5-8.21v-2.45l14.83-3.6c2.74-.72,4.75.72,4.75,4.03v81.5c0,5.18,3.31,5.33,7.49,4.75v1.44c-1.73,1.87-5.47,3.6-9.22,3.6-4.61,0-7.49-2.3-8.5-6.62-.43-1.58-1.73-2.02-2.45-2.02-4.32,0-8.35,8.64-20.88,8.64-15.84,0-27.94-13.25-27.94-33.12ZM800.4,167.38c7.34,0,16.99-3.31,16.99-16.56v-17.86c0-15.84-12.1-22.03-21.74-22.03-12.82,0-19.87,10.37-19.87,25.78,0,17.71,9.65,30.67,24.62,30.67Z"/>
    <path class="cls-1" d="M851.95,164.06v-41.76c0-6.34-1.01-9.22-9.36-8.5v-2.45l14.69-3.46c2.74-.72,4.75.72,4.75,3.89v52.27c0,4.75,2.45,6.34,9.22,7.06v2.74h-28.8v-2.74c7.06-.72,9.5-2.3,9.5-7.06ZM855.55,77.52c3.74,0,6.48,2.74,6.48,6.48s-2.74,6.48-6.48,6.48-6.34-2.74-6.34-6.48,2.74-6.48,6.34-6.48Z"/>
    <path class="cls-1" d="M878.45,141.46c0-20.3,15.12-33.84,33.12-33.84s32.54,12.82,32.54,33.26-15.12,33.84-33.12,33.84-32.54-12.82-32.54-33.26ZM914.74,170.97c10.66,0,18.14-8.06,18.14-24.77,0-19.15-10.22-34.99-25.2-34.99-10.51,0-18.14,8.21-18.14,25.06,0,18.86,10.22,34.7,25.2,34.7Z"/>
  </g>
  <path class="cls-1" d="M514.84,142.12l-52.08-117.6-16.32,1.68c0,4.56-1.2,11.52-5.52,21.84l-43.44,99.84c-5.28,12-9.42,22.77-22.14,25.41h-10.76c-10.6-.29-14.91-17.66-21.57-37.17-5.52-16.56-13.68-25.68-27.84-29.76-1.68-.48-1.68-2.4,0-2.64,24-4.56,36-18,36-36.96,0-25.92-21.6-40.56-57.84-40.56h-73.45v6.72c10.32,1.44,15.84,4.56,15.84,13.44v49.58c-8.9-.24-17.84.25-26.28,2.95.87-41.95-29.38-72.88-69.06-78.11-44.43-5.86-85.51,21.69-91.89,70.04-6.24,47.37,25.3,82.74,68.26,88.4,44.42,5.86,85.51-21.69,91.95-70.53.28-2.1.48-4.17.59-6.22,7.8-2.61,16.99-3.27,26.43-2.85v55.22c0,9.12-5.52,12.24-15.84,13.68v6.72h62.65v-6.72c-12.96-1.44-18.24-4.56-18.24-13.68v-32.64c0-9.12,3.36-13.2,15.36-13.2,16.32,0,24.72,6.72,31.68,26.4,10.32,29.52,16.8,39.84,42.96,39.84h70.55v-6.72c-14.88-2.16-20.64-8.16-15.84-19.44l4.32-9.6c2.4-6,7.2-7.44,13.68-7.44h42c6.24,0,11.28,1.44,14.16,7.92l4.56,10.56c4.32,10.08,4.32,15.6-10.32,18v6.72h60.25v-6.48c-12.24-2.4-14.89-9.12-22.81-26.64ZM124.67,170.28c-20.94-2.77-37.05-22.25-42.04-50.54.84.43,1.68.86,2.52,1.3,8.56,4.4,17.38,8.87,26.97,10.96,5.5,1.24,11.08,1.73,16.7,1.69,14-.91,27.82-5.05,40.3-11.16,1.8-.87,3.57-1.76,5.32-2.68-6.73,40.88-29.81,53.05-49.77,50.43ZM175.25,114.08c-2.86,1.13-5.78,2.11-8.78,2.88-11.96,3.17-24.63,4.42-36.79,2.27-.67-.1-2-.4-2.65-.6-1.9-.45-3.91-1-5.73-1.66-9.87-3.45-17.1-10-25.4-16.75-4.58-3.82-9.42-7.76-14.3-11.62.15-1.6.33-3.21.54-4.83,5.75-43.69,29.7-56.77,50.32-54.05,28.61,3.78,48.23,38.77,42.79,84.36ZM290.45,99.64h-12.96c-9.84,0-13.2-4.08-13.2-13.2v-39.12c0-9.12,3.83-12.48,13.92-12.48h13.92c22.08,0,29.76,14.88,29.76,32.16s-7.68,32.64-31.44,32.64ZM469.24,122.92h-42.96c-2.64,0-5.04-2.16-3.36-5.76l22.32-51.84c1.92-4.32,2.88-4.32,4.8-.24l22.8,51.84c1.68,3.84-.96,6-3.6,6Z"/>
</svg>