<?xml version="1.0" encoding="UTF-8"?>
<svg id="Light_backrgound" xmlns="http://www.w3.org/2000/svg" viewBox="0 0 1000 200">
  <defs>
    <style>
      .cls-1 {
        letter-spacing: 0em;
      }

      .cls-2 {
        letter-spacing: 0em;
      }

      .cls-3 {
        fill: #f8f4ec;
      }

      .cls-4, .cls-5 {
        fill: #1f1812;
      }

      .cls-6 {
        letter-spacing: 0em;
      }

      .cls-5 {
        font-family: QuincyCF-Light, 'Quincy CF';
        font-size: 144px;
        font-weight: 300;
      }

      .cls-7 {
        fill: #c68a4b;
      }
    </style>
  </defs>
  <rect class="cls-3" width="1000" height="200"/>
  <path class="cls-4" d="M48.49,90.82c6.37-48.35,47.46-75.9,91.89-70.04,42.71,5.63,74.5,41.03,68.32,87.91-6.44,48.84-47.53,76.39-91.95,70.53-42.95-5.66-74.5-41.03-68.25-88.4ZM124.67,170.28c20.62,2.72,44.56-10.36,50.39-54.54,6.11-46.39-13.64-82.2-42.6-86.02-20.62-2.72-44.56,10.36-50.32,54.04-6.18,46.88,13.57,82.69,42.53,86.51Z"/>
  <path class="cls-4" d="M364.85,173.3v1.94h-10.56c-26.16,0-32.64-10.32-42.96-39.84-6.96-19.68-15.36-26.4-31.68-26.4-12,0-15.36,4.08-15.36,13.2v32.64c0,9.12,5.28,12.24,18.24,13.68v6.72h-62.64v-6.72c10.32-1.44,15.84-4.56,15.84-13.68V46.36c0-8.88-5.52-12-15.84-13.44v-6.72h73.44c36.24,0,57.84,14.64,57.84,40.56,0,18.96-12,32.4-36,36.96-1.68.24-1.68,2.16,0,2.64,14.16,4.08,22.32,13.2,27.84,29.76,6.72,19.68,11.04,37.18,21.84,37.18M277.49,99.64h12.96c23.76,0,31.44-15.6,31.44-32.64s-7.68-32.16-29.76-32.16h-13.92c-10.08,0-13.92,3.36-13.92,12.48v39.12c0,9.12,3.36,13.2,13.2,13.2Z"/>
  <path class="cls-4" d="M397.48,147.88l43.44-99.84c4.32-10.32,5.52-17.28,5.52-21.84l16.32-1.68,52.08,117.6c7.92,17.52,10.56,24.24,22.8,26.64v6.48h-60.24v-6.72c14.64-2.4,14.64-7.92,10.32-18l-4.56-10.56c-2.88-6.48-7.92-7.92-14.16-7.92h-42c-6.48,0-11.28,1.44-13.68,7.44l-4.32,9.6c-4.8,11.28.96,17.28,15.84,19.44v6.72h-50.4l.9-1.95c12.72-2.64,16.86-13.41,22.14-25.41ZM426.28,122.92h42.96c2.64,0,5.28-2.16,3.6-6l-22.8-51.84c-1.92-4.08-2.88-4.08-4.8.24l-22.32,51.84c-1.68,3.6.72,5.76,3.36,5.76Z"/>
  <circle class="cls-7" cx="559.42" cy="162.74" r="12.5"/>
  <text class="cls-5" transform="translate(578.79 173.86)"><tspan x="0" y="0">st</tspan><tspan class="cls-1" x="104.69" y="0">u</tspan><tspan class="cls-6" x="182.88" y="0">d</tspan><tspan class="cls-2" x="260.06" y="0">i</tspan><tspan x="295.34" y="0">o</tspan></text>
  <path class="cls-4" d="M274.57,105.59c-19.79-4.48-48.84-9.98-67.9-2.16-13.14,5.1-24.65,12.88-37.55,19.09-12.48,6.12-26.3,10.25-40.3,11.16-5.62.04-11.2-.45-16.7-1.69-9.59-2.09-18.41-6.56-26.97-10.96-8.39-4.35-16.68-8.57-25.21-12.34l12.22-27.4c7.96,6.04,16.21,12.64,23.74,18.93,8.3,6.75,15.53,13.29,25.4,16.75,1.82.66,3.83,1.21,5.73,1.66.65.2,1.98.49,2.65.6,12.17,2.15,24.83.89,36.79-2.27,13.82-3.54,25.79-11.64,39.04-16.65,13.28-5.48,28.05-4.71,42.11-3.73,9.48.82,18.84,2.06,28.35,3.66,0,0-1.4,5.35-1.4,5.35h0Z"/>
  <rect class="cls-4" x="364.58" y="173.3" width="10.76" height="1.95"/>
</svg>